#!OML:ASF F:\VICON\USERDATA\INSTALL\rory3\rory3.ASF
:FULLY-SPECIFIED
:DEGREES
537
root -13.1755 17.476 9.52483 -183.068 -1.19318 175.139
lowerback 12.0023 0.623271 -3.93054
upperback 1.32822 0.138146 -0.190748
thorax -5.35249 0.0820061 2.00184
lowerneck -20.6549 -2.74832 -12.3731
upperneck 32.7386 -3.82621 6.56318
head 15.2984 -2.95518 4.00377
rclavicle -5.71506e-015 -1.94809e-014
rhumerus -34.2432 -16.1985 -78.0613
rradius 34.0582
rwrist 9.95015
rhand -13.0278 9.62786
rfingers 7.12502
rthumb 13.0664 -19.9428
lclavicle -5.71506e-015 -1.94809e-014
lhumerus -30.681 5.76166 75.101
lradius 32.593
lwrist -1.44613
lhand -23.4661 24.8879
lfingers 7.12502
lthumb 2.99297 54.8466
rfemur -13.6294 -6.14293 20.3655
rtibia 47.7959
rfoot -22.1162 6.28902
rtoes 2.89614
lfemur -4.49612 -2.09135 -23.2108
ltibia 27.1683
lfoot -17.5493 -8.37723
ltoes -9.7967
538
root -13.2259 17.4724 9.51773 -183.259 -1.27768 175.098
lowerback 12.0545 0.630011 -3.7326
upperback 1.40531 0.158887 -0.293544
thorax -5.30069 0.0816355 1.77908
lowerneck -20.4849 -2.76941 -12.4036
upperneck 32.6569 -3.82564 6.45463
head 15.2203 -2.97252 3.95978
rclavicle -2.18663e-015 -4.77083e-015
rhumerus -34.3056 -16.0358 -78.236
rradius 34.1226
rwrist 9.87827
rhand -13.0334 9.64317
rfingers 7.12502
rthumb 13.061 -19.9279
lclavicle -2.18663e-015 -4.77083e-015
lhumerus -30.5844 5.74 75.0071
lradius 32.4295
lwrist -1.63688
lhand -23.4499 25.0363
lfingers 7.12502
lthumb 3.00861 54.9948
rfemur -13.0366 -5.9552 20.7383
rtibia 47.3998
rfoot -21.5139 4.62205
rtoes 7.08959
lfemur -4.27144 -1.59437 -23.3048
ltibia 27.1576
lfoot -17.7524 -9.14059
ltoes -9.686
539
root -13.2798 17.4642 9.51709 -183.382 -1.38346 174.888
lowerback 12.1528 0.62005 -3.68389
upperback 1.41571 0.135255 -0.425689
thorax -5.34264 0.0661284 1.61686
lowerneck -20.1819 -2.71636 -12.4024
upperneck 32.5121 -3.72463 6.29585
head 15.0674 -2.95095 3.9061
rclavicle 1.63997e-015 8.34896e-015
rhumerus -34.3082 -15.9695 -78.3074
rradius 33.9407
rwrist 10.0059
rhand -12.9618 9.7997
rfingers 7.12502
rthumb 13.13 -19.7669
lclavicle 1.63997e-015 8.34896e-015
lhumerus -30.6279 5.51597 75.0114
lradius 32.3638
lwrist -1.64753
lhand -23.5076 25.4698
lfingers 7.12502
lthumb 2.95289 55.4291
rfemur -12.515 -5.60357 20.8038
rtibia 46.8496
rfoot -21.6243 2.32334
rtoes 8.68262
lfemur -4.11021 -1.148 -23.5837
ltibia 27.1751
lfoot -17.8884 -9.96666
ltoes -8.88562
540
root -13.3321 17.4558 9.51636 -183.499 -1.45379 174.601
lowerback 12.2279 0.641276 -3.70295
upperback 1.48684 0.138964 -0.586573
thorax -5.30963 0.0606527 1.45847
lowerneck -20.264 -2.71242 -12.4525
upperneck 32.5813 -3.67819 6.26118
head 15.1136 -2.94381 3.91066
rclavicle 4.00054e-015 -1.11319e-014
rhumerus -34.2493 -15.6795 -78.4972
rradius 33.8583
rwrist 9.92697
rhand -13.0704 9.95889
rfingers 7.12502
rthumb 13.0253 -19.6144
lclavicle 4.00054e-015 -1.11319e-014
lhumerus -30.4923 5.4938 75.0062
lradius 32.2038
lwrist -1.87523
lhand -23.673 25.4557
lfingers 7.12502
lthumb 2.79313 55.4171
rfemur -12.029 -5.00025 20.6792
rtibia 46.1931
rfoot -22.4013 -0.394277
rtoes 7.25871
lfemur -3.99672 -0.809336 -23.9554
ltibia 27.2626
lfoot -17.9748 -10.7254
ltoes -7.50124
541
root -13.3864 17.4464 9.51095 -183.639 -1.53822 174.531
lowerback 12.2037 0.628572 -3.45764
upperback 1.60561 0.143023 -0.68685
thorax -5.17028 0.0488394 1.21494
lowerneck -20.4543 -2.73434 -12.5022
upperneck 32.7375 -3.65099 6.18752
head 15.2274 -2.95371 3.89667
rclavicle -5.46658e-016 1.70955e-014
rhumerus -34.1764 -15.4491 -78.6195
rradius 33.7985
rwrist 9.92172
rhand -12.9583 10.1847
rfingers 7.12502
rthumb 13.1334 -19.3817
lclavicle -5.46658e-016 1.70955e-014
lhumerus -30.3493 5.77263 74.9052
lradius 32.0844
lwrist -2.64022
lhand -23.2173 25.3258
lfingers 7.12502
lthumb 3.23329 55.281
rfemur -11.5355 -4.50686 20.6593
rtibia 45.4915
rfoot -22.9486 -2.34013
rtoes 7.01473
lfemur -3.92887 -0.401608 -24.1017
ltibia 27.454
lfoot -18.3355 -11.1747
ltoes -7.7581
542
root -13.4444 17.4356 9.50957 -183.672 -1.44965 174.471
lowerback 12.082 0.665692 -3.18639
upperback 1.66429 0.226679 -0.772219
thorax -5.0432 0.0802433 0.959538
lowerneck -20.372 -2.7161 -12.485
upperneck 32.7353 -3.57691 5.99748
head 15.1947 -2.94891 3.8254
rclavicle 4.34841e-015 3.57812e-015
rhumerus -34.0128 -15.4691 -78.589
rradius 33.4374
rwrist 10.1535
rhand -12.874 10.4021
rfingers 7.12502
rthumb 13.2147 -19.159
lclavicle 4.34841e-015 3.57812e-015
lhumerus -30.2974 5.91943 74.8632
lradius 32.021
lwrist -3.2084
lhand -22.5716 25.4495
lfingers 7.12502
lthumb 3.85684 55.3943
rfemur -11.2171 -4.13396 20.5299
rtibia 44.8182
rfoot -23.0282 -3.32132
rtoes 7.17734
lfemur -4.03125 0.120121 -24.2549
ltibia 27.7631
lfoot -18.9229 -11.2916
ltoes -9.19563
543
root -13.5029 17.4262 9.51226 -183.598 -1.21785 174.414
lowerback 11.959 0.742552 -2.95806
upperback 1.62555 0.365666 -0.813823
thorax -5.01922 0.146445 0.765073
lowerneck -20.1927 -2.61731 -12.4009
upperneck 32.7312 -3.41346 5.75999
head 15.1249 -2.90959 3.73849
rclavicle 4.05024e-015 -1.78906e-014
rhumerus -33.9259 -15.2582 -78.5327
rradius 33.1014
rwrist 10.1891
rhand -12.9783 10.3833
rfingers 7.12502
rthumb 13.1141 -19.1843
lclavicle 4.05024e-015 -1.78906e-014
lhumerus -30.4243 5.88659 75.0697
lradius 31.9962
lwrist -3.06476
lhand -23.0553 25.129
lfingers 7.12502
lthumb 3.38968 55.0818
rfemur -11.0333 -3.67946 20.3405
rtibia 44.2342
rfoot -22.9778 -3.72247
rtoes 7.43816
lfemur -4.31934 0.631353 -24.4165
ltibia 28.1774
lfoot -19.4577 -11.3899
ltoes -10.8123
544
root -13.5616 17.4144 9.51145 -183.633 -1.16805 174.646
lowerback 11.9697 0.727391 -2.43717
upperback 1.59133 0.423603 -0.742903
thorax -5.05903 0.169752 0.535985
lowerneck -20.0743 -2.53502 -12.4525
upperneck 32.77 -3.23731 5.57246
head 15.093 -2.87711 3.69974
rclavicle 2.23633e-015 -4.37326e-015
rhumerus -33.9342 -14.6363 -78.5177
rradius 33.022
rwrist 10.0063
rhand -12.9087 9.96204
rfingers 7.12502
rthumb 13.1812 -19.6013
lclavicle 2.23633e-015 -4.37326e-015
lhumerus -30.6627 5.92575 75.3254
lradius 32.0687
lwrist -2.93776
lhand -23.498 24.9745
lfingers 7.12502
lthumb 2.9622 54.9337
rfemur -10.6578 -3.42404 20.391
rtibia 43.7384
rfoot -22.9866 -3.728
rtoes 8.46703
lfemur -4.51905 1.11499 -24.2435
ltibia 28.6311
lfoot -19.9892 -11.7499
ltoes -11.6136
545
root -13.6175 17.4036 9.51009 -183.662 -1.3513 174.733
lowerback 11.9182 0.640616 -2.09558
upperback 1.63463 0.356203 -0.723547
thorax -4.98071 0.129425 0.375129
lowerneck -20.0884 -2.51853 -12.5593
upperneck 32.7759 -3.14041 5.49862
head 15.0895 -2.85948 3.70491
rclavicle -7.50412e-015 1.11319e-014
rhumerus -33.7594 -14.3001 -78.4643
rradius 32.7984
rwrist 10.1477
rhand -12.6102 9.72945
rfingers 7.12502
rthumb 13.4689 -19.815
lclavicle -7.50412e-015 1.11319e-014
lhumerus -30.7625 6.15059 75.4555
lradius 32.1405
lwrist -3.1282
lhand -23.487 25.09
lfingers 7.12502
lthumb 2.97283 55.049
rfemur -10.3019 -3.28483 20.2386
rtibia 43.3029
rfoot -23.1209 -3.79224
rtoes 9.25568
lfemur -4.71864 1.54005 -24.1999
ltibia 29.0958
lfoot -20.5921 -12.2126
ltoes -12.4848
546
root -13.6718 17.4003 9.50975 -183.569 -1.63185 174.608
lowerback 11.7232 0.567253 -1.97136
upperback 1.70503 0.27767 -0.759046
thorax -4.79603 0.0856525 0.281912
lowerneck -20.1753 -2.56098 -12.6185
upperneck 32.7653 -3.12948 5.43104
head 15.1049 -2.86519 3.68889
rclavicle -2.83268e-015 -6.36111e-015
rhumerus -33.5783 -14.2522 -78.3048
rradius 32.6561
rwrist 10.3499
rhand -12.2956 9.70085
rfingers 7.12502
rthumb 13.7722 -19.8233
lclavicle -2.83268e-015 -6.36111e-015
lhumerus -30.7766 6.18347 75.7108
lradius 32.2531
lwrist -3.21474
lhand -23.5161 25.1196
lfingers 7.12502
lthumb 2.94464 55.079
rfemur -10.0939 -3.10814 19.821
rtibia 42.88
rfoot -23.2807 -3.95423
rtoes 9.06433
lfemur -5.08073 1.95103 -24.3637
ltibia 29.592
lfoot -20.9775 -13.1838
ltoes -12.9987
547
root -13.7235 17.3947 9.51167 -183.48 -1.91058 174.55
lowerback 11.6163 0.492929 -1.8754
upperback 1.6942 0.19966 -0.730562
thorax -4.74617 0.0473468 0.270063
lowerneck -20.16 -2.51286 -12.507
upperneck 32.7908 -3.00513 5.15194
head 15.0925 -2.84036 3.57354
rclavicle -4.82053e-015 -5.96354e-015
rhumerus -33.6132 -14.0181 -78.104
rradius 32.7548
rwrist 10.4454
rhand -12.1143 9.62536
rfingers 7.12502
rthumb 13.9468 -19.8869
lclavicle -4.82053e-015 -5.96354e-015
lhumerus -30.9973 6.21529 76.0172
lradius 32.4534
lwrist -3.1614
lhand -23.5903 24.9346
lfingers 7.12502
lthumb 2.87302 54.895
rfemur -9.87675 -2.99237 19.4737
rtibia 42.4665
rfoot -23.4774 -4.05274
rtoes 8.56866
lfemur -5.46939 2.39063 -24.4325
ltibia 30.1225
lfoot -21.6025 -14.1118
ltoes -14.7588
